<svg
  width='80'
  height='80'
  viewBox='0 0 80 80'
  fill='none'
  xmlns='http://www.w3.org/2000/svg'
>
  <g clip-path='url(#clip0_613_85)'>
    <rect width='80' height='80' rx='12' fill='url(#paint0_linear_613_85)'></rect>
    <rect
      x='5.59961'
      y='5.59961'
      width='68.8'
      height='68.8001'
      rx='9.6'
      fill='url(#paint1_linear_613_85)'
    ></rect>
    <g style='mix-blend-mode:overlay'>
    <!-- style={{ mixBlendMode: 'overlay' }} -->
      <path
        fill-rule='evenodd'
        clip-rule='evenodd'
        d='M23.0851 56.5L19.9049 59.6802C18.9339 58.6888 18.0358 57.6258 17.219 56.5H23.0851ZM23.5 56.0851L23.4945 56.0906H16.9275C13.7425 51.5315 11.8743 45.9845 11.8743 40.0012L11.8743 39.959H23.5V56.0851ZM23.5 56.6641L20.1935 59.9706C21.2207 60.9896 22.3262 61.9299 23.5 62.7816V56.6641ZM19.6154 59.9697L4.21391 75.3712L4.50341 75.6607L19.904 60.2601C21.0163 61.3636 22.219 62.3761 23.5 63.2856L23.5 80H23.9094L23.9094 63.5709C28.4905 66.7046 34.0318 68.5375 40.0012 68.5375L40.041 68.5375V80H40.4504V68.5341C46.4617 68.4413 52.0221 66.4897 56.582 63.2288V80H56.9914V62.9306C58.1989 62.0344 59.3331 61.0451 60.3835 59.9733L75.5786 75.1685L75.8681 74.879L60.668 59.6788C61.6148 58.6847 62.4906 57.6224 63.2873 56.5H80V56.0906H63.5726C66.7053 51.5099 68.5375 45.9695 68.5375 40.0012L68.5375 39.959H80V39.5496H68.534C68.4407 33.5381 66.4886 27.9778 63.2271 23.418L80 23.418V23.0086L62.9288 23.0086C62.1136 21.9104 61.2214 20.8729 60.2601 19.904L75.5781 4.58594L75.2886 4.29644L59.9697 19.6154C59.037 18.7017 58.042 17.8515 56.9914 17.0718L56.9914 0H56.582L56.582 16.7735C52.0221 13.5126 46.4618 11.5611 40.4504 11.4683V0H40.041V11.4649L40.0012 11.4648C34.0318 11.4648 28.4905 13.2977 23.9094 16.4314L23.9094 0H23.5L23.5 16.7168C22.3785 17.513 21.3169 18.3883 20.3235 19.3344L4.79341 3.80425L4.50391 4.09375L20.0291 19.6189C18.958 20.6686 17.9693 21.802 17.0736 23.0086L0 23.0086V23.418L16.7752 23.418C13.5137 27.9778 11.5616 33.5381 11.4683 39.5496H0V39.959H11.4649L11.4648 40.0012C11.4648 45.9695 13.2971 51.5099 16.4298 56.0906H0V56.5H16.7151C17.59 57.7326 18.5604 58.8928 19.6154 59.9697ZM59.6802 19.9049C58.8342 19.0764 57.9362 18.3009 56.9914 17.5838V22.5936L59.6802 19.9049ZM56.582 23.003L56.5765 23.0086H40.4504V11.8778C46.478 11.9722 52.0452 13.9626 56.582 17.2788V23.003ZM56.1671 23.418L40.4504 39.1346V23.418H56.1671ZM40.6145 39.5496L56.582 23.582V39.5496H40.6145ZM40.041 40.1231V56.0906L24.0735 56.0906L40.041 40.1231ZM39.6261 39.959L23.9094 55.6756V39.959L39.6261 39.959ZM57.1555 23.0086L59.9706 20.1935C60.8462 21.0762 61.6637 22.0166 62.4168 23.0086H57.1555ZM62.7833 56.5C62.0459 57.5165 61.2422 58.4817 60.3784 59.3892L57.4892 56.5H62.7833ZM60.0939 59.6838L56.9914 56.5813V62.4186C58.0918 61.5833 59.1288 60.6689 60.0939 59.6838ZM56.9914 56.0023L57.0797 56.0906H63.0748C66.2598 51.5315 68.1281 45.9845 68.1281 40.0012L68.1281 39.959H56.9914V56.0023ZM40.9481 39.959L56.582 55.5929V39.959H40.9481ZM56.5007 56.0906L40.4504 40.0403V56.0906H56.5007ZM24.4071 23.418L40.041 39.0519V23.418H24.4071ZM39.9597 39.5496L23.9094 23.4993V39.5496L39.9597 39.5496ZM23.9094 22.9203L23.9977 23.0086H40.041V11.8743L40.0012 11.8743C34.0168 11.8743 28.4689 13.7432 23.9094 16.9292V22.9203ZM20.6131 19.624L23.5 22.5108V17.2207C22.4844 17.9577 21.52 18.7609 20.6131 19.624ZM23.4187 23.0086L20.3186 19.9084C19.3342 20.8729 18.4203 21.9091 17.5855 23.0086H23.4187ZM11.8778 39.5496H23.5V23.418H17.2805C13.9637 27.9546 11.9727 33.5219 11.8778 39.5496ZM62.7219 23.418H56.9914V39.5496H68.1245C68.0297 33.5219 66.0387 27.9546 62.7219 23.418ZM56.582 62.7236V56.5H40.4504V68.1246C46.478 68.0302 52.0452 66.0398 56.582 62.7236ZM40.041 68.1281V56.5L23.9094 56.5V63.0732C28.4689 66.2592 34.0168 68.1281 40.0012 68.1281L40.041 68.1281Z'
        fill='white'
        fill-opacity='0.6'
      ></path>
    </g>
    <!-- <g filter='url(#filter0_f_613_85)'>
      <ellipse
        cx='68'
        cy='68.0001'
        rx='12'
        ry='12.0001'
        fill='#224EFF'
        fill-opacity='0.6'
      ></ellipse>
    </g> -->
  </g>
  <rect
    x='1.2'
    y='1.2'
    width='77.6'
    height='77.6'
    rx='10.8'
    stroke='url(#paint2_linear_613_85)'
    stroke-width='2.4'
  ></rect>
  <g transform="scale(0.0098) translate(1400, 1700)">  
  <path fill="#fff" d="M265 4069c-70-20-71-59-4-197 29-59 78-161 109-227 32-66 85-178 119-248 77-159 167-347 236-492 29-60 81-168 115-240 34-71 79-166 100-210 21-44 62-132 93-195 30-63 101-212 157-330 240-504 311-652 373-780 35-74 101-210 145-303 90-186 96-193 186-184 58 5 76 23 124 121 341 693 462 946 462 968 0 10 3 18 8 18 4 0 17 19 29 42 27 52 229 469 288 593 23 50 88 182 143 295 55 113 165 340 245 505 80 165 188 389 241 499 53 109 103 214 112 235 18 44 11 91-17 117-20 18-41 19-303 19-281 0-281 0-344-29-110-51-132-84-347-521-106-214-303-613-437-886-135-273-251-499-257-503-19-12-39 11-73 83-17 36-85 176-151 311-66 135-134 277-152 315-18 39-65 138-105 220-82 169-166 344-250 520-153 323-181 373-230 419-73 68-112 76-369 75-119 0-229-5-246-10z"/>
    <path fill="#fff" d="M3922 3999c-42-21-47-29-134-208-143-293-148-310-107-347 19-17 43-20 253-24 274-7 308-16 406-107 209-193 166-551-82-696-100-58-168-67-520-67-344 0-370-3-403-53-9-14-54-107-101-206-92-200-101-237-59-269 24-19 45-20 373-24 347-4 347-4 422-39 137-65 210-175 210-317 0-176-102-308-267-348-46-10-182-13-642-14-584 0-584 0-618-38-30-32-93-155-234-460-37-80-38-124-3-151 26-21 33-21 788-21 708 0 769 1 876 20 238 40 409 119 565 262 120 109 221 278 266 443 45 169 34 388-28 557-30 81-104 197-157 247-20 19-36 43-36 52 0 10 32 40 78 72 309 217 445 544 388 927-66 435-413 770-851 820-49 5-146 10-215 10-108 0-131-3-168-21z"/>
  </g>
  <defs>
    <filter
      id='filter0_f_613_85'
      x='40.8888'
      y='40.8888'
      width='54.2224'
      height='54.2225'
      filterUnits='userSpaceOnUse'
      color-interpolation-filters='sRGB'
    >
      <feFlood flood-opacity='0' result='BackgroundImageFix'></feFlood>
      <feBlend mode='normal' in='SourceGraphic' in2='BackgroundImageFix' result='shape'></feBlend>
      <feGaussianBlur
        stdDeviation='7.55559'
        result='effect1_foregroundBlur_613_85'
      ></feGaussianBlur>
    </filter>
    <linearGradient
      id='paint0_linear_613_85'
      x1='69.5342'
      y1='-3.5648e-07'
      x2='23.2309'
      y2='40.0396'
      gradientUnits='userSpaceOnUse'
    >
      <stop stop-color='#79AEE7'></stop>
      <stop offset='0.331593' stop-color='#4960A7'></stop>
      <stop offset='1' stop-color='#101012'></stop>
    </linearGradient>
    <linearGradient
      id='paint1_linear_613_85'
      x1='63.2276'
      y1='12.6725'
      x2='34.6145'
      y2='53.6632'
      gradientUnits='userSpaceOnUse'
    >
      <stop stop-color='#3B4F75'></stop>
      <stop offset='0.529514' stop-color='#1B253E'></stop>
      <stop offset='1' stop-color='#101012'></stop>
    </linearGradient>
    <linearGradient
      id='paint2_linear_613_85'
      x1='70.4063'
      y1='3.68682'
      x2='14.2319'
      y2='58.9098'
      gradientUnits='userSpaceOnUse'
    >
      <stop stop-color='#EBF8FC'></stop>
      <stop offset='0.295134' stop-color='#7FB8EF'></stop>
      <stop offset='0.57639' stop-color='#224EFF'></stop>
      <stop offset='1' stop-color='#1D1D29'></stop>
    </linearGradient>
    <clipPath id='clip0_613_85'>
      <rect width='80' height='80' rx='12' fill='white'></rect>
    </clipPath>
  </defs>
</svg>
